<svg width="351" height="88" viewBox="0 0 351 88" fill="none" xmlns="http://www.w3.org/2000/svg">
<rect y="0.427734" width="351" height="87.1448" rx="10" fill="white"/>
<path d="M42.1192 55.9387H47.808C49.7939 55.9387 51.6932 56.7111 53.0893 58.0775C54.4845 59.443 55.2632 61.2891 55.2632 63.208C55.2632 65.1272 54.4845 66.9735 53.0893 68.339C51.6932 69.7053 49.7939 70.4777 47.808 70.4777H42.1192C40.1332 70.4777 38.234 69.7053 36.8379 68.339C35.4427 66.9735 34.6641 65.1272 34.6641 63.208C34.6641 61.2891 35.4427 59.443 36.8379 58.0775C38.234 56.7111 40.1332 55.9387 42.1192 55.9387Z" stroke="#FF451A" stroke-width="5.5"/>
<path d="M32.7858 33.8578H47.2544C48.3231 33.8578 49.3806 34.0642 50.3666 34.4645C51.3525 34.8649 52.2466 35.451 52.9987 36.1883C53.7508 36.9256 54.3459 37.7994 54.7515 38.7593C55.157 39.7192 55.3654 40.7471 55.3654 41.7845C55.3654 42.8219 55.157 43.8497 54.7515 44.8096C54.3459 45.7695 53.7508 46.6433 52.9987 47.3806C52.2466 48.1179 51.3525 48.704 50.3666 49.1044C49.3806 49.5047 48.3231 49.7112 47.2544 49.7112H32.7858C30.6265 49.7112 28.5607 48.87 27.0415 47.3806C25.5231 45.892 24.6748 43.8785 24.6748 41.7845C24.6748 39.6904 25.5231 37.6769 27.0415 36.1883C28.5607 34.6989 30.6265 33.8578 32.7858 33.8578Z" stroke="#FF451A" stroke-width="5.5"/>
<path d="M49.9512 27.6286C47.0253 27.6286 44.6533 25.2566 44.6533 22.3307C44.6533 19.4048 47.0253 17.0328 49.9512 17.0328C52.8771 17.0328 55.2491 19.4048 55.2491 22.3307C55.2491 25.2566 52.8771 27.6286 49.9512 27.6286Z" stroke="#FF451A" stroke-width="5.5"/>
<path d="M47.8087 54.6646H42.1199C39.8048 54.6646 37.5844 55.5647 35.9474 57.1669C34.3103 58.7692 33.3906 60.9423 33.3906 63.208C33.3906 65.4742 34.3103 67.6472 35.9474 69.2494C37.5844 70.8516 39.8048 71.7519 42.1199 71.7519H47.8087C50.1239 71.7519 52.3442 70.8516 53.9813 69.2494C55.6183 67.6472 56.5381 65.4742 56.5381 63.208C56.5381 60.9423 55.6183 58.7692 53.9813 57.1669C52.3442 55.5647 50.1239 54.6646 47.8087 54.6646Z" fill="#FF451A"/>
<path d="M47.2542 32.5836H32.7855C30.2964 32.5836 27.9093 33.553 26.1492 35.2785C24.3892 37.004 23.4004 39.3442 23.4004 41.7845C23.4004 44.2247 24.3892 46.5649 26.1492 48.2904C27.9093 50.0159 30.2964 50.9853 32.7855 50.9853H47.2542C48.4866 50.9853 49.7071 50.7473 50.8457 50.2849C51.9844 49.8225 53.019 49.1448 53.8905 48.2904C54.762 47.4361 55.4533 46.4218 55.9249 45.3055C56.3966 44.1892 56.6393 42.9927 56.6393 41.7845C56.6393 40.5762 56.3966 39.3797 55.9249 38.2635C55.4533 37.1472 54.762 36.1328 53.8905 35.2785C53.019 34.4241 51.9844 33.7464 50.8457 33.284C49.7071 32.8216 48.4866 32.5836 47.2542 32.5836Z" fill="#FF451A"/>
<path d="M43.3799 22.3307C43.3799 18.7011 46.3223 15.7587 49.9519 15.7587C53.5815 15.7587 56.524 18.7011 56.524 22.3307C56.524 25.9603 53.5815 28.9027 49.9519 28.9027C46.3223 28.9027 43.3799 25.9603 43.3799 22.3307Z" fill="#FF451A"/>
<path fill-rule="evenodd" clip-rule="evenodd" d="M111.944 69.8286V24.9311C111.944 24.3652 112.403 23.9064 112.969 23.9064H137.873C138.439 23.9064 138.898 24.3652 138.898 24.9311V28.5295C138.898 29.0955 138.439 29.5542 137.873 29.5542H117.738V44.339H135.686C136.252 44.339 136.71 44.7978 136.71 45.3637V48.8142C136.71 49.3801 136.252 49.8389 135.686 49.8389H117.738V65.2082H137.876C138.441 65.2082 138.9 65.6669 138.9 66.2326V69.8313C138.9 70.3971 138.441 70.8562 137.876 70.8558L112.969 70.8535C112.403 70.8535 111.944 70.3948 111.944 69.8286Z" fill="#0B1228"/>
<path d="M323.66 28.4228L322.285 24.3011V28.4228H321.524V23.5376H322.799L324.05 27.5071L325.324 23.5376H326.557V28.4228H325.796V24.3011L324.421 28.4228H323.66Z" fill="#0B1228"/>
<path d="M318.624 24.1489H317.098V23.5376H320.915V24.1489H319.388V28.4201H318.624V24.1489Z" fill="#0B1228"/>
<path fill-rule="evenodd" clip-rule="evenodd" d="M303.433 65.7904H303.442C306.28 65.7904 308.35 65.1157 309.705 63.8921C311.051 62.6777 311.782 60.8426 311.782 58.3252V58.3189C311.801 56.6488 311.227 55.0261 310.163 53.7389C309.098 52.4517 307.612 51.5832 305.969 51.2876L305.946 51.2836L298.194 49.2374C295.366 48.5431 292.871 46.8805 291.141 44.5383C289.413 42.1991 288.558 39.3296 288.723 36.4266C288.727 32.575 290.092 29.326 292.512 27.0409C294.931 24.7553 298.361 23.4753 302.419 23.4753C306.954 23.4753 310.292 25.0097 312.625 27.3689C314.946 29.7166 316.232 32.8404 316.755 35.9697C316.86 36.6 316.367 37.1498 315.749 37.1498H312.177C311.643 37.1498 311.223 36.7476 311.15 36.252C310.865 34.2885 309.887 32.4861 308.386 31.175C306.786 29.7774 304.713 29.0433 302.59 29.1228L302.579 29.1232H302.569C300.049 29.1232 298.042 29.8565 296.672 31.1097C295.307 32.358 294.519 34.1703 294.519 36.4429V36.456L294.519 36.4691C294.44 38.1445 294.953 39.7941 295.968 41.1298C296.982 42.4655 298.433 43.4024 300.068 43.7767L300.079 43.7793L308.111 45.9703C310.919 46.6648 313.404 48.3009 315.153 50.6058C316.901 52.9103 317.806 55.7441 317.719 58.635C317.716 62.6318 316.354 65.9247 313.871 68.2154C311.393 70.5011 307.857 71.7372 303.597 71.7396C301.591 71.8229 299.589 71.4944 297.715 70.774C295.837 70.0526 294.127 68.9531 292.692 67.5436C291.256 66.1346 290.125 64.4453 289.369 62.5813C288.668 60.8532 288.302 59.0088 288.291 57.1465C288.288 56.5993 288.716 56.1665 289.241 56.1316L292.7 55.9017C293.3 55.8618 293.778 56.3353 293.805 56.8989C293.856 57.9921 294.1 59.069 294.525 60.08C295.011 61.235 295.725 62.2806 296.623 63.154C297.522 64.0274 298.587 64.7108 299.755 65.1639C300.924 65.6171 302.172 65.8302 303.424 65.7908L303.433 65.7904Z" fill="#0B1228"/>
<path fill-rule="evenodd" clip-rule="evenodd" d="M265.648 51.4719V69.829C265.648 70.3947 266.106 70.8534 266.672 70.8539L270.426 70.8557C270.992 70.8562 271.451 70.397 271.451 69.8308V51.4706L286.295 25.4387C286.685 24.7556 286.191 23.9064 285.405 23.9064H281.368C280.999 23.9064 280.66 24.104 280.477 24.424L268.547 45.3714L256.616 24.424C256.434 24.104 256.094 23.9064 255.726 23.9064H251.542C250.753 23.9064 250.26 24.7594 250.654 25.4426L265.648 51.4719Z" fill="#0B1228"/>
<path fill-rule="evenodd" clip-rule="evenodd" d="M234.493 65.7904H234.502C237.34 65.7904 239.409 65.1157 240.765 63.8921C242.111 62.6777 242.842 60.8426 242.842 58.3252V58.3189C242.861 56.6488 242.287 55.0261 241.223 53.7389C240.158 52.4517 238.672 51.5832 237.028 51.2876L237.006 51.2836L229.253 49.2374C226.426 48.543 223.931 46.8805 222.201 44.5383C220.473 42.1991 219.618 39.3295 219.783 36.4266C219.787 32.575 221.152 29.326 223.572 27.0409C225.991 24.7553 229.42 23.4753 233.478 23.4753C238.014 23.4753 241.352 25.0097 243.684 27.3689C246.006 29.7166 247.291 32.8404 247.814 35.9696C247.92 36.6 247.427 37.1498 246.809 37.1498H243.237C242.703 37.1498 242.282 36.7476 242.21 36.252C241.925 34.2884 240.946 32.4861 239.446 31.175C237.846 29.7774 235.772 29.0433 233.649 29.1228L233.639 29.1232H233.629C231.109 29.1232 229.102 29.8565 227.731 31.1097C226.366 32.358 225.579 34.1703 225.579 36.4429V36.456L225.578 36.4691C225.5 38.1445 226.013 39.7941 227.027 41.1298C228.041 42.4655 229.493 43.4024 231.128 43.7767L231.139 43.7793L239.17 45.9703C241.978 46.6648 244.464 48.3009 246.212 50.6058C247.96 52.9103 248.866 55.7441 248.778 58.635C248.776 62.6318 247.414 65.9247 244.93 68.2154C242.453 70.5011 238.916 71.7372 234.656 71.7395C232.651 71.8243 230.648 71.4972 228.774 70.7781C226.896 70.0581 225.185 68.9595 223.749 67.5515C222.312 66.143 221.18 64.455 220.422 62.591C219.72 60.8634 219.353 59.0189 219.341 57.1565C219.337 56.6098 219.765 56.177 220.289 56.141L223.758 55.9029C224.358 55.8617 224.838 56.3355 224.865 56.8999C224.916 57.9928 225.159 59.0693 225.585 60.08C226.071 61.235 226.784 62.2806 227.683 63.154C228.582 64.0274 229.647 64.7108 230.815 65.1639C231.984 65.6171 233.231 65.8302 234.484 65.7908L234.493 65.7904Z" fill="#0B1228"/>
<path fill-rule="evenodd" clip-rule="evenodd" d="M187.688 69.829V24.9311C187.688 24.3652 188.146 23.9064 188.712 23.9064H213.616C214.182 23.9064 214.641 24.3652 214.641 24.9311V28.5295C214.641 29.0955 214.182 29.5542 213.616 29.5542H193.481V44.3391H211.429C211.995 44.3391 212.454 44.7978 212.454 45.3637V48.8142C212.454 49.3801 211.995 49.8389 211.429 49.8389H193.481V65.2082H213.619C214.185 65.2082 214.643 65.6669 214.643 66.2331V69.8313C214.643 70.397 214.185 70.8562 213.619 70.8562L188.712 70.8534C188.146 70.8534 187.688 70.3947 187.688 69.829Z" fill="#0B1228"/>
<path fill-rule="evenodd" clip-rule="evenodd" d="M179.469 24.9311V69.829C179.469 70.3947 179.01 70.8534 178.445 70.8539L174.644 70.8557C174.285 70.8562 173.953 70.6685 173.767 70.3618L152.324 34.9447V69.829C152.324 70.3947 151.865 70.8534 151.299 70.8534H147.555C146.989 70.8534 146.53 70.3947 146.53 69.829V24.9311C146.53 24.3652 146.989 23.9064 147.555 23.9064H151.501C151.86 23.9064 152.192 24.0937 152.378 24.4004L173.821 59.8177V24.9311C173.821 24.3652 174.28 23.9064 174.845 23.9064H178.444C179.01 23.9064 179.469 24.3652 179.469 24.9311Z" fill="#0B1228"/>
<path fill-rule="evenodd" clip-rule="evenodd" d="M88.435 28.9702H88.4225C85.9029 28.9702 83.3133 29.7401 81.359 31.5398C79.4153 33.3299 78.0378 36.1968 78.0378 40.5213V54.2418C78.0378 58.5663 79.4153 61.4333 81.359 63.2234C83.3133 65.023 85.9029 65.7931 88.4225 65.7931C90.9421 65.7931 93.5321 65.023 95.486 63.2234C97.4297 61.4333 98.8076 58.5663 98.8076 54.2418V51.1536H88.8858C88.3201 51.1536 87.8609 50.6949 87.8609 50.1289V46.5356C87.8609 45.9697 88.3201 45.5109 88.8858 45.5109H103.428C103.994 45.5109 104.453 45.9697 104.453 46.5356V54.2393C104.453 59.3171 102.884 63.621 100.072 66.6614C97.2559 69.7059 93.2342 71.4383 88.4225 71.4383C83.6831 71.4383 79.6627 69.7041 76.8299 66.6618C74.0003 63.6228 72.3926 59.3194 72.3926 54.2393V40.5213C72.3926 35.4436 73.9605 31.1395 76.7738 28.0995C79.5895 25.0573 83.6112 23.3259 88.4257 23.3249C92.422 23.1903 96.3135 24.6155 99.2779 27.299C102.117 29.8697 103.892 33.402 104.267 37.2017C104.327 37.8108 103.841 38.3111 103.254 38.3111H99.6421C99.1106 38.3111 98.6876 37.9112 98.6167 37.4131C98.2831 35.0663 97.1118 32.9136 95.3122 31.3572C93.4126 29.7142 90.9564 28.86 88.447 28.9696L88.435 28.9702Z" fill="#0B1228"/>
</svg>
